<?xml version="1.0" encoding="utf-8"?>
<!-- Generator: Adobe Illustrator 21.0.0, SVG Export Plug-In . SVG Version: 6.00 Build 0)  -->
<svg version="1.1" id="Layer_1" xmlns="http://www.w3.org/2000/svg" xmlns:xlink="http://www.w3.org/1999/xlink" x="0px" y="0px"
	 viewBox="0 0 52.2 44.3" style="enable-background:new 0 0 52.2 44.3;" xml:space="preserve">
<style type="text/css">
	.st0{fill:none;}
	.st1{fill:#016938;}
	.st2{fill:#88C04E;}
</style>
<line class="st0" x1="31.6" y1="22" x2="28.5" y2="22"/>
<g>
	<path id="Plus" class="st1" d="M16.3,25.3c0.4-2.1,0.9-4.1,1.9-5.9c0.6-1.3,1.5-2.5,2.5-3.5s2.2-1.9,3.5-2.7
		c0.4-0.2,0.8-0.4,1.2-0.6c1.8-0.9,3.8-1.5,5.8-2.1c0.1,0,0.1-0.1,0.2-0.1V2.2c0-0.5-0.5-1-1-1H20c-0.5,0-1,0.5-1,1V13H8.2
		c-0.5,0-1,0.5-1,1v10.3c0,0.5,0.5,1,1,1L16.3,25.3L16.3,25.3z M31.4,33.6c-2.3,0.6-4.8,1.2-6.7,2.4c-0.5,0.3-1,0.5-1.5,0.5
		c-0.1,0-0.2,0-0.3,0.1c0,0.2,0.1,0.4,0.1,0.6h7.4c0.5,0,1-0.5,1-1C31.4,36.1,31.4,33.6,31.4,33.6z"/>
	<path id="Leaf" class="st2" d="M45,8.1c-0.5,3.5-0.5,7.4-1.4,10.8c-1.2,4.6-3.8,8.7-7.9,11.1c-1,0.6-2.2,1.1-3.4,1.5
		c-3.4,1.2-7,1.7-9.9,3.5c-0.2,0.2-0.4,0.2-0.5,0.2c-2.1,0.3-0.7-6.6,4.3-10.3c1-0.8,2.1-1.5,3.2-2.2c0.2-0.1,0.1-0.4-0.2-0.4
		c0,0,0,0-0.1,0c-0.9,0.4-1.9,0.9-2.8,1.4c-3.4,1.8-6,4.4-7,8.3c-0.9,3.4-0.9,7.2,0.6,10.4c0.2,0.4-0.3,0.9-0.7,0.6
		c-0.3-0.2-0.4-0.6-0.5-0.9c-0.6-1.4-0.9-3-1.2-4.5c-0.6-3.7-0.7-7.6,0-11.3c0.4-2.1,0.9-4.1,1.8-5.8c0.5-1.1,1.3-2.2,2.3-3.1
		c1-1,2.1-1.8,3.3-2.5c0.4-0.2,0.8-0.4,1.2-0.6c1.8-0.9,3.9-1.5,5.9-2.1c4.2-1.1,8.5-2.1,12-4.8c0.1-0.1,0.2-0.1,0.3-0.1
		C44.8,7.3,45.1,7.6,45,8.1z"/>
</g>
</svg>
