<?xml version="1.0" encoding="utf-8"?>
<!-- Generator: Adobe Illustrator 21.0.0, SVG Export Plug-In . SVG Version: 6.00 Build 0)  -->
<svg version="1.1" id="Layer_1" xmlns="http://www.w3.org/2000/svg" xmlns:xlink="http://www.w3.org/1999/xlink" x="0px" y="0px"
	 viewBox="0 0 320.4 79.8" style="enable-background:new 0 0 320.4 79.8;" xml:space="preserve">
<style type="text/css">
	.st0{fill:none;}
	.st1{fill:#006838;}
	.st2{fill:#88C250;}
</style>
<g>
	<line class="st0" x1="52.5" y1="37.3" x2="46.9" y2="37.3"/>
	<path id="Plus" class="st1" d="M18.2,45.4c0.7-3.8,1.7-7.5,3.5-10.9c1.2-2.4,2.8-4.6,4.7-6.4c1.9-1.9,4.1-3.6,6.4-5
		c0.7-0.4,1.5-0.8,2.3-1.2c3.4-1.6,7-2.8,10.6-3.8c0.1,0,0.2-0.1,0.3-0.1V3c0-1-0.9-1.9-1.9-1.9h-19c-1,0-1.9,0.9-1.9,1.9v19.8H3.4
		c-1,0-1.9,0.9-1.9,1.9v18.9c0,1,0.9,1.9,1.9,1.9L18.2,45.4L18.2,45.4z M46,60.6c-4.2,1.2-8.7,2.2-12.2,4.4c-0.9,0.5-1.8,0.9-2.8,1
		c-0.2,0-0.4,0-0.6,0.1c0,0.4,0.1,0.7,0.2,1.1h13.5c1,0,1.9-0.9,1.9-1.9C46,65.2,46,60.6,46,60.6z"/>
	<path id="Leaf" class="st2" d="M71,13.8c-1,6.4-0.9,13.6-2.5,19.8C66.3,42,61.5,49.5,54,54c-1.9,1.2-4,2.1-6.1,2.8
		C41.7,59,35,60,29.6,63.2c-0.4,0.3-0.7,0.4-1,0.4c-3.8,0.6-1.3-12.1,7.8-18.8c1.9-1.4,3.9-2.7,5.8-4c0.3-0.2,0.1-0.7-0.3-0.7
		c0,0,0,0-0.1,0c-1.7,0.8-3.5,1.7-5.1,2.6c-6.2,3.4-11,8.1-12.8,15.2c-1.6,6.1-1.6,13.3,1.1,19c0.4,0.8-0.6,1.6-1.3,1.1
		c-0.5-0.4-0.8-1.1-1-1.7c-1.1-2.6-1.6-5.5-2.2-8.2c-1.2-6.8-1.3-13.9,0-20.7c0.7-3.8,1.7-7.4,3.4-10.7c1-2.1,2.4-4.1,4.2-5.8
		c1.8-1.9,3.9-3.4,6-4.6c0.7-0.4,1.5-0.8,2.2-1.2c3.4-1.7,7.1-2.8,10.9-3.9c7.7-2.1,15.7-3.8,22-8.7c0.2-0.1,0.3-0.2,0.5-0.2
		C70.5,12.4,71.1,13,71,13.8z"/>
	<g>
		<path class="st2" d="M82.2,54.5c-0.2-0.2-0.4-0.5-0.4-0.9V22.3c0-0.4,0.1-0.7,0.4-0.9c0.2-0.2,0.5-0.4,0.9-0.4h5.5
			c0.8,0,1.4,0.4,1.7,1.1L98.6,37l8.4-14.9c0.4-0.7,0.9-1.1,1.7-1.1h5.5c0.4,0,0.7,0.1,0.9,0.4s0.4,0.5,0.4,0.9v31.3
			c0,0.4-0.1,0.6-0.4,0.9c-0.2,0.2-0.5,0.3-0.9,0.3H108c-0.3,0-0.6-0.1-0.8-0.4s-0.4-0.5-0.4-0.8V36.1l-5.2,9.6
			c-0.4,0.7-1,1.1-1.7,1.1h-2.6c-0.6,0-1.2-0.4-1.7-1.1l-5.2-9.6v17.6c0,0.4-0.1,0.6-0.4,0.9c-0.2,0.2-0.5,0.3-0.9,0.3h-6.1
			C82.8,54.8,82.5,54.7,82.2,54.5z"/>
		<path class="st2" d="M124,52.2c-2.3-2.1-3.4-5.2-3.5-9.2v-1.5c0.1-3.8,1.3-6.8,3.6-9c2.3-2.2,5.3-3.2,9.1-3.2c2.8,0,5.1,0.6,7,1.7
			c1.9,1.1,3.3,2.6,4.3,4.6c0.9,1.9,1.4,4.2,1.4,6.6v1.2c0,0.4-0.1,0.7-0.4,0.9c-0.2,0.2-0.5,0.4-0.9,0.4h-15.3v0.3
			c0,1.4,0.4,2.6,1,3.5c0.6,0.9,1.6,1.3,2.8,1.3c0.8,0,1.4-0.2,1.9-0.5c0.5-0.3,0.9-0.7,1.3-1.2c0.3-0.3,0.5-0.5,0.7-0.6
			c0.2-0.1,0.5-0.1,0.8-0.1h6.3c0.3,0,0.5,0.1,0.7,0.3c0.2,0.2,0.3,0.4,0.3,0.7c0,0.8-0.5,1.8-1.4,2.9c-1,1.1-2.3,2.1-4.2,2.9
			c-1.8,0.8-4,1.2-6.4,1.2C129.3,55.3,126.2,54.3,124,52.2z M137.1,39.7L137.1,39.7c0-1.6-0.3-2.8-1-3.7c-0.7-0.9-1.6-1.3-2.8-1.3
			c-1.2,0-2.2,0.4-2.8,1.3c-0.7,0.9-1,2.1-1,3.6v0.1H137.1z"/>
		<path class="st2" d="M152.3,52.4c-1.8-2-2.7-4.8-2.9-8.4l0-1.7l0-1.7c0.1-3.5,1.1-6.3,2.9-8.3c1.8-2,4.2-3,7.3-3
			c2.9,0,5.2,0.9,7,2.8V21.8c0-0.4,0.1-0.6,0.4-0.9c0.2-0.2,0.5-0.3,0.8-0.3h6.2c0.4,0,0.7,0.1,0.9,0.3c0.2,0.2,0.4,0.5,0.4,0.9
			v31.9c0,0.4-0.1,0.6-0.4,0.9c-0.2,0.2-0.5,0.3-0.9,0.3h-5.7c-0.3,0-0.6-0.1-0.8-0.4s-0.4-0.5-0.4-0.8v-1.5
			c-1.7,2.1-4.2,3.2-7.5,3.2C156.6,55.3,154.1,54.4,152.3,52.4z M165.6,47.3c0.7-0.9,1-2,1.1-3.4c0.1-0.9,0.1-1.5,0.1-1.8
			c0-0.4,0-0.9-0.1-1.8c-0.1-1.3-0.4-2.3-1.1-3.1c-0.7-0.8-1.7-1.2-3.1-1.2c-1.4,0-2.5,0.4-3.1,1.3c-0.6,0.9-1,2-1.1,3.5l0,1.5
			l0,1.5c0.1,1.5,0.5,2.7,1.1,3.5c0.6,0.9,1.7,1.3,3.1,1.3C163.9,48.6,164.9,48.2,165.6,47.3z"/>
		<path class="st2" d="M181.2,25.9c-0.2-0.2-0.3-0.5-0.3-0.9v-4.5c0-0.4,0.1-0.7,0.4-0.9s0.5-0.4,0.8-0.4h6c0.4,0,0.7,0.1,0.9,0.4
			s0.4,0.5,0.4,0.9V25c0,0.4-0.1,0.7-0.4,0.9c-0.2,0.2-0.5,0.4-0.9,0.4h-6C181.7,26.3,181.5,26.1,181.2,25.9z M181.3,54.5
			c-0.2-0.2-0.4-0.5-0.4-0.8V31c0-0.4,0.1-0.6,0.4-0.9c0.2-0.2,0.5-0.3,0.8-0.3h6c0.4,0,0.7,0.1,0.9,0.3c0.2,0.2,0.4,0.5,0.4,0.9
			v22.7c0,0.4-0.1,0.6-0.4,0.9c-0.2,0.2-0.5,0.3-0.9,0.3h-6C181.8,54.8,181.5,54.7,181.3,54.5z"/>
		<path class="st1" d="M198.6,51.9c-2.6-2.3-4-5.5-4.2-9.7c0-0.9,0-2.4,0-4.4c0-2,0-3.5,0-4.4c0.1-4.1,1.5-7.2,4.2-9.4
			c2.7-2.2,6.3-3.4,10.9-3.4c3.1,0,5.8,0.5,8.1,1.5c2.3,1,4.1,2.3,5.3,3.8c1.2,1.6,1.8,3.2,1.9,4.8c0,0.3-0.1,0.5-0.3,0.7
			c-0.2,0.2-0.5,0.3-0.7,0.3h-7.5c-0.3,0-0.6-0.1-0.7-0.2c-0.2-0.1-0.3-0.3-0.5-0.5c-0.4-0.9-1-1.7-1.9-2.3s-2.1-1-3.6-1
			c-3.7,0-5.7,1.9-5.8,5.8c0,0.9,0,2.3,0,4.2s0,3.3,0,4.2c0.1,4.1,2.1,6.1,5.9,6.1c1.9,0,3.3-0.5,4.4-1.4c1.1-0.9,1.6-2.3,1.6-4.2
			v-0.9h-4.3c-0.4,0-0.7-0.1-0.9-0.4s-0.4-0.5-0.4-0.9v-3.8c0-0.4,0.1-0.7,0.4-0.9s0.5-0.4,0.9-0.4h12.3c0.4,0,0.7,0.1,0.9,0.4
			s0.4,0.5,0.4,0.9v5.6c0,2.7-0.6,5.1-1.9,7.1c-1.3,2-3.1,3.5-5.4,4.5c-2.3,1-5,1.6-8.1,1.6C204.9,55.3,201.3,54.2,198.6,51.9z"/>
		<path class="st1" d="M230.2,54.5c-0.2-0.2-0.4-0.5-0.4-0.8V31c0-0.4,0.1-0.7,0.3-0.9c0.2-0.2,0.5-0.4,0.9-0.4h5.9
			c0.4,0,0.7,0.1,0.9,0.4s0.4,0.5,0.4,0.9v1.8c0.9-1,2-1.8,3.2-2.3c1.2-0.5,2.6-0.8,4-0.8h2.2c0.4,0,0.6,0.1,0.9,0.3
			c0.2,0.2,0.3,0.5,0.3,0.9v5.3c0,0.3-0.1,0.6-0.3,0.8c-0.2,0.2-0.5,0.4-0.9,0.4h-4.9c-1.3,0-2.3,0.4-3,1.1c-0.7,0.7-1,1.7-1,3v12.2
			c0,0.4-0.1,0.6-0.4,0.9c-0.2,0.2-0.5,0.3-0.9,0.3H231C230.7,54.8,230.4,54.7,230.2,54.5z"/>
		<path class="st1" d="M252.4,25.9c-0.2-0.2-0.3-0.5-0.3-0.9v-4.5c0-0.4,0.1-0.7,0.4-0.9s0.5-0.4,0.8-0.4h6c0.4,0,0.7,0.1,0.9,0.4
			c0.2,0.2,0.4,0.5,0.4,0.9V25c0,0.4-0.1,0.7-0.4,0.9c-0.2,0.2-0.5,0.4-0.9,0.4h-6C252.9,26.3,252.6,26.1,252.4,25.9z M252.4,54.5
			c-0.2-0.2-0.4-0.5-0.4-0.8V31c0-0.4,0.1-0.6,0.4-0.9c0.2-0.2,0.5-0.3,0.8-0.3h6c0.4,0,0.7,0.1,0.9,0.3c0.2,0.2,0.4,0.5,0.4,0.9
			v22.7c0,0.4-0.1,0.6-0.4,0.9c-0.2,0.2-0.5,0.3-0.9,0.3h-6C252.9,54.8,252.7,54.7,252.4,54.5z"/>
		<path class="st1" d="M268.1,52.4c-1.8-2-2.7-4.8-2.9-8.4l0-1.7l0-1.7c0.1-3.5,1.1-6.3,2.9-8.3c1.8-2,4.2-3,7.3-3
			c2.9,0,5.2,0.9,7,2.8V21.8c0-0.4,0.1-0.6,0.4-0.9c0.2-0.2,0.5-0.3,0.8-0.3h6.2c0.4,0,0.7,0.1,0.9,0.3c0.2,0.2,0.4,0.5,0.4,0.9
			v31.9c0,0.4-0.1,0.6-0.4,0.9c-0.2,0.2-0.5,0.3-0.9,0.3h-5.7c-0.3,0-0.6-0.1-0.8-0.4c-0.2-0.2-0.4-0.5-0.4-0.8v-1.5
			c-1.7,2.1-4.2,3.2-7.5,3.2C272.3,55.3,269.9,54.4,268.1,52.4z M281.4,47.3c0.7-0.9,1-2,1.1-3.4c0.1-0.9,0.1-1.5,0.1-1.8
			c0-0.4,0-0.9-0.1-1.8c-0.1-1.3-0.4-2.3-1.1-3.1c-0.7-0.8-1.7-1.2-3.1-1.2c-1.4,0-2.5,0.4-3.1,1.3c-0.6,0.9-1,2-1.1,3.5l0,1.5
			l0,1.5c0.1,1.5,0.5,2.7,1.1,3.5c0.6,0.9,1.7,1.3,3.1,1.3C279.7,48.6,280.7,48.2,281.4,47.3z"/>
		<path class="st1" d="M300.6,54.2c-1.8-0.7-3.1-1.6-3.9-2.7c-0.9-1-1.3-2-1.3-2.8c0-0.3,0.1-0.6,0.4-0.8c0.2-0.2,0.5-0.3,0.8-0.3
			h5.8c0.2,0,0.4,0.1,0.5,0.2c0.5,0.4,0.9,0.6,0.9,0.6c0.6,0.5,1.2,0.8,1.7,1s1.2,0.4,1.9,0.4c0.9,0,1.6-0.2,2.1-0.5
			c0.6-0.3,0.8-0.8,0.8-1.4c0-0.5-0.2-0.9-0.5-1.3c-0.3-0.3-0.9-0.6-1.7-0.9c-0.9-0.3-2.1-0.6-3.9-0.9c-5.6-1.1-8.4-3.7-8.4-7.7
			c0-1.3,0.4-2.6,1.3-3.8c0.9-1.2,2.1-2.2,3.8-2.9s3.6-1.1,6-1.1c2.3,0,4.4,0.4,6.1,1.1c1.7,0.7,3,1.6,3.9,2.6
			c0.9,1,1.4,1.9,1.4,2.8c0,0.3-0.1,0.5-0.3,0.8c-0.2,0.2-0.5,0.3-0.7,0.3H312c-0.3,0-0.5-0.1-0.7-0.2c-0.4-0.2-0.8-0.4-1.2-0.7
			c-0.6-0.4-1.1-0.7-1.5-0.9c-0.4-0.2-1-0.3-1.7-0.3c-0.8,0-1.4,0.2-1.9,0.5c-0.5,0.4-0.7,0.8-0.7,1.4c0,0.5,0.1,0.9,0.4,1.2
			c0.3,0.3,0.8,0.6,1.7,0.9c0.9,0.3,2.1,0.6,3.9,0.9c3.2,0.5,5.4,1.5,6.9,2.9c1.4,1.4,2.1,3,2.1,4.9c0,2.4-1.1,4.3-3.2,5.8
			c-2.1,1.4-5.1,2.1-9,2.1C304.5,55.3,302.3,55,300.6,54.2z"/>
	</g>
</g>
</svg>
